<svg xmlns="http://www.w3.org/2000/svg" xmlns:xlink="http://www.w3.org/1999/xlink" width="150" zoomAndPan="magnify" viewBox="0 0 112.5 112.499997" height="150" preserveAspectRatio="xMidYMid meet" version="1.0"><defs><clipPath id="d387eccf38"><path d="M 0.976562 0.976562 L 111.027344 0.976562 L 111.027344 111.027344 L 0.976562 111.027344 Z M 0.976562 0.976562 " clip-rule="nonzero"/></clipPath><clipPath id="9327de54d0"><path d="M 56 0.976562 C 25.609375 0.976562 0.976562 25.609375 0.976562 56 C 0.976562 86.390625 25.609375 111.027344 56 111.027344 C 86.390625 111.027344 111.027344 86.390625 111.027344 56 C 111.027344 25.609375 86.390625 0.976562 56 0.976562 Z M 56 0.976562 " clip-rule="nonzero"/></clipPath><clipPath id="46297025d6"><path d="M 22.152344 24.359375 L 94.046875 24.359375 L 94.046875 87.632812 L 22.152344 87.632812 Z M 22.152344 24.359375 " clip-rule="nonzero"/></clipPath></defs><g clip-path="url(#d387eccf38)"><g clip-path="url(#9327de54d0)"><path fill="#ef7428" d="M 0.976562 0.976562 L 111.027344 0.976562 L 111.027344 111.027344 L 0.976562 111.027344 Z M 0.976562 0.976562 " fill-opacity="1" fill-rule="nonzero"/></g></g><g clip-path="url(#46297025d6)"><path fill="#ffffff" d="M 86.292969 61.410156 C 86.292969 61.410156 97.257812 48.082031 93.386719 35.617188 C 89.519531 23.152344 72.96875 21.429688 60.933594 28.523438 C 48.894531 35.617188 37.933594 56.679688 22.242188 59.257812 C 22.242188 59.257812 28.046875 61.195312 39.007812 54.101562 C 49.96875 47.007812 62.4375 31.101562 74.6875 31.960938 C 86.941406 32.824219 90.59375 48.941406 81.136719 57.109375 C 81.136719 57.109375 83.929688 47.007812 80.0625 40.558594 C 80.0625 40.558594 82.855469 51.523438 75.117188 56.894531 C 75.117188 56.894531 74.042969 46.929688 69.097656 42.882812 C 69.097656 42.882812 73.183594 51.523438 71.035156 57.109375 C 71.035156 57.109375 49.96875 57.96875 36.214844 71.941406 C 36.214844 71.941406 59.210938 58.828125 82.640625 63.773438 L 85.648438 73.445312 C 85.648438 73.445312 56.203125 70.867188 37.289062 87.632812 C 37.289062 87.632812 66.304688 73.875 91.667969 78.605469 L 86.292969 61.410156 " fill-opacity="1" fill-rule="nonzero"/></g><path fill="#ffffff" d="M 32.128906 50.015625 C 32.128906 50.015625 19.617188 48.511719 13.429688 54.960938 C 6.695312 61.980469 10.207031 79.25 28.476562 76.023438 L 32.128906 86.558594 C 32.128906 86.558594 46.316406 75.59375 60.5 73.660156 C 60.5 73.660156 49.753906 72.15625 34.066406 80.324219 L 30.625 71.296875 C 30.625 71.296875 19.449219 74.734375 14.933594 66.136719 C 10.421875 57.539062 19.566406 51.582031 32.128906 50.015625 " fill-opacity="1" fill-rule="nonzero"/></svg>