<svg xmlns="http://www.w3.org/2000/svg" xmlns:xlink="http://www.w3.org/1999/xlink" width="200" zoomAndPan="magnify" viewBox="0 0 150 31.5" height="42" preserveAspectRatio="xMidYMid meet" version="1.0"><defs><g/><clipPath id="b25aeb569e"><path d="M 5.023438 1.042969 L 22.976562 1.042969 L 22.976562 16.539062 L 5.023438 16.539062 Z M 5.023438 1.042969 " clip-rule="nonzero"/></clipPath><clipPath id="df15d0adf0"><path d="M 2 7 L 15 7 L 15 16.539062 L 2 16.539062 Z M 2 7 " clip-rule="nonzero"/></clipPath></defs><g clip-path="url(#b25aeb569e)"><path fill="#ef7428" d="M 21.003906 10.273438 C 21.003906 10.273438 23.734375 6.953125 22.773438 3.847656 C 21.808594 0.742188 17.683594 0.3125 14.6875 2.078125 C 11.6875 3.847656 8.957031 9.09375 5.046875 9.738281 C 5.046875 9.738281 6.492188 10.21875 9.222656 8.453125 C 11.953125 6.683594 15.0625 2.722656 18.113281 2.9375 C 21.164062 3.152344 22.074219 7.167969 19.71875 9.203125 C 19.71875 9.203125 20.414062 6.683594 19.453125 5.078125 C 19.453125 5.078125 20.148438 7.808594 18.21875 9.148438 C 18.21875 9.148438 17.953125 6.664062 16.722656 5.65625 C 16.722656 5.65625 17.738281 7.808594 17.203125 9.203125 C 17.203125 9.203125 11.953125 9.414062 8.527344 12.894531 C 8.527344 12.894531 14.257812 9.628906 20.09375 10.863281 L 20.84375 13.269531 C 20.84375 13.269531 13.507812 12.628906 8.796875 16.804688 C 8.796875 16.804688 16.023438 13.378906 22.34375 14.554688 L 21.003906 10.273438 " fill-opacity="1" fill-rule="nonzero"/></g><g clip-path="url(#df15d0adf0)"><path fill="#ef7428" d="M 7.511719 7.433594 C 7.511719 7.433594 4.394531 7.058594 2.851562 8.667969 C 1.175781 10.414062 2.046875 14.71875 6.601562 13.914062 L 7.511719 16.539062 C 7.511719 16.539062 11.042969 13.808594 14.578125 13.324219 C 14.578125 13.324219 11.902344 12.949219 7.992188 14.984375 L 7.136719 12.734375 C 7.136719 12.734375 4.351562 13.59375 3.226562 11.449219 C 2.101562 9.308594 4.378906 7.824219 7.511719 7.433594 " fill-opacity="1" fill-rule="nonzero"/></g><g fill="#ef7428" fill-opacity="1"><g transform="translate(11.696498, 28.337903)"><g><path d="M 5.683594 0.167969 C 8.285156 0.167969 10.304688 -1.234375 10.304688 -3.703125 C 10.304688 -6.433594 7.984375 -6.976562 5.929688 -7.480469 C 4.246094 -7.871094 2.730469 -8.246094 2.730469 -9.667969 C 2.730469 -10.921875 3.925781 -11.667969 5.515625 -11.667969 C 7.105469 -11.667969 8.304688 -10.828125 8.304688 -9.367188 L 9.929688 -9.367188 C 9.929688 -11.742188 8.265625 -13.238281 5.554688 -13.238281 C 2.84375 -13.238281 1.101562 -11.875 1.101562 -9.613281 C 1.101562 -6.992188 3.328125 -6.453125 5.347656 -5.984375 C 7.050781 -5.574219 8.601562 -5.21875 8.601562 -3.683594 C 8.601562 -2.300781 7.3125 -1.441406 5.667969 -1.441406 C 3.851562 -1.441406 2.523438 -2.394531 2.523438 -4.019531 L 0.839844 -4.019531 C 0.839844 -1.441406 2.804688 0.167969 5.683594 0.167969 Z M 5.683594 0.167969 "/></g></g></g><g fill="#ef7428" fill-opacity="1"><g transform="translate(22.859982, 28.337903)"><g><path d="M 3.011719 -1.476562 L 8.339844 -9.816406 L 8.339844 -10.097656 L 0.804688 -10.097656 L 0.804688 -8.621094 L 5.816406 -8.621094 L 0.46875 -0.222656 L 0.46875 0 L 8.378906 0 L 8.378906 -1.476562 Z M 3.011719 -1.476562 "/></g></g></g><g fill="#ef7428" fill-opacity="1"><g transform="translate(31.854349, 28.337903)"><g><path d="M 10.210938 -10.097656 L 10.003906 -8.546875 C 9.070312 -9.648438 7.667969 -10.304688 6.023438 -10.304688 C 3.03125 -10.304688 0.785156 -8.058594 0.785156 -5.03125 C 0.785156 -2.039062 3.03125 0.222656 6.023438 0.222656 C 7.667969 0.222656 9.050781 -0.429688 9.984375 -1.515625 L 10.15625 0 L 11.464844 0 L 11.464844 -10.097656 Z M 6.132812 -1.308594 C 4 -1.308594 2.414062 -2.917969 2.414062 -5.050781 C 2.414062 -7.164062 4 -8.769531 6.132812 -8.769531 C 8.285156 -8.769531 9.835938 -7.179688 9.835938 -5.050781 C 9.835938 -2.898438 8.285156 -1.308594 6.132812 -1.308594 Z M 6.132812 -1.308594 "/></g></g></g><g fill="#ef7428" fill-opacity="1"><g transform="translate(44.925157, 28.337903)"><g><path d="M 12.753906 -10.304688 C 11.371094 -10.304688 10.078125 -9.574219 9.332031 -8.398438 C 8.769531 -9.574219 7.667969 -10.304688 6.226562 -10.304688 C 4.957031 -10.304688 3.777344 -9.707031 2.992188 -8.695312 L 2.730469 -10.097656 L 1.589844 -10.097656 L 1.589844 0 L 3.179688 0 L 3.179688 -5.589844 C 3.179688 -7.441406 4.394531 -8.863281 5.871094 -8.863281 C 7.332031 -8.863281 8.171875 -7.78125 8.171875 -5.945312 L 8.171875 0 L 9.742188 0 L 9.742188 -5.589844 C 9.742188 -7.441406 10.957031 -8.863281 12.4375 -8.863281 C 13.875 -8.863281 14.71875 -7.78125 14.71875 -5.945312 L 14.71875 0 L 16.308594 0 L 16.308594 -6.453125 C 16.308594 -8.714844 14.886719 -10.304688 12.753906 -10.304688 Z M 12.753906 -10.304688 "/></g></g></g><g fill="#ef7428" fill-opacity="1"><g transform="translate(62.689497, 28.337903)"><g><path d="M 11.035156 -4.992188 C 11.035156 -7.949219 9.015625 -10.304688 5.945312 -10.304688 C 3.011719 -10.304688 0.804688 -8.042969 0.804688 -5.050781 C 0.804688 -2.039062 3.011719 0.222656 5.945312 0.222656 C 8.136719 0.222656 9.910156 -0.992188 10.773438 -3.066406 L 9.089844 -3.066406 C 8.472656 -1.980469 7.347656 -1.328125 5.945312 -1.328125 C 4.039062 -1.328125 2.636719 -2.5625 2.394531 -4.433594 L 10.996094 -4.433594 C 11.015625 -4.617188 11.035156 -4.804688 11.035156 -4.992188 Z M 5.945312 -8.808594 C 7.742188 -8.808594 9.105469 -7.6875 9.445312 -5.890625 L 2.429688 -5.890625 C 2.75 -7.648438 4.113281 -8.808594 5.945312 -8.808594 Z M 5.945312 -8.808594 "/></g></g></g><g fill="#ef7428" fill-opacity="1"><g transform="translate(74.50746, 28.337903)"><g><path d="M 6.039062 0.222656 C 8.433594 0.222656 10.359375 -1.214844 10.976562 -3.441406 L 9.367188 -3.441406 C 8.75 -2.09375 7.519531 -1.308594 6.039062 -1.308594 C 3.984375 -1.308594 2.414062 -2.9375 2.414062 -5.050781 C 2.414062 -7.144531 3.964844 -8.769531 6.039062 -8.769531 C 7.535156 -8.769531 8.789062 -7.984375 9.367188 -6.675781 L 10.957031 -6.675781 C 10.339844 -8.882812 8.453125 -10.304688 6.039062 -10.304688 C 3.046875 -10.304688 0.785156 -8.058594 0.785156 -5.050781 C 0.785156 -2.039062 3.046875 0.222656 6.039062 0.222656 Z M 6.039062 0.222656 "/></g></g></g><g fill="#ef7428" fill-opacity="1"><g transform="translate(86.10103, 28.337903)"><g><path d="M 3.011719 -1.476562 L 8.339844 -9.816406 L 8.339844 -10.097656 L 0.804688 -10.097656 L 0.804688 -8.621094 L 5.816406 -8.621094 L 0.46875 -0.222656 L 0.46875 0 L 8.378906 0 L 8.378906 -1.476562 Z M 3.011719 -1.476562 "/></g></g></g><g fill="#ef7428" fill-opacity="1"><g transform="translate(95.095397, 28.337903)"><g><path d="M 8.078125 0 L 10.078125 0 L 6.023438 -5.253906 L 9.707031 -10.097656 L 7.761719 -10.097656 L 4.65625 -5.984375 L 3.179688 -5.984375 L 3.179688 -13.6875 L 1.589844 -13.6875 L 1.589844 0 L 3.179688 0 L 3.179688 -4.527344 L 4.617188 -4.527344 Z M 8.078125 0 "/></g></g></g><g fill="#ef7428" fill-opacity="1"><g transform="translate(105.267818, 28.337903)"><g><path d="M 10.210938 -10.097656 L 10.003906 -8.546875 C 9.070312 -9.648438 7.667969 -10.304688 6.023438 -10.304688 C 3.03125 -10.304688 0.785156 -8.058594 0.785156 -5.03125 C 0.785156 -2.039062 3.03125 0.222656 6.023438 0.222656 C 7.667969 0.222656 9.050781 -0.429688 9.984375 -1.515625 L 10.15625 0 L 11.464844 0 L 11.464844 -10.097656 Z M 6.132812 -1.308594 C 4 -1.308594 2.414062 -2.917969 2.414062 -5.050781 C 2.414062 -7.164062 4 -8.769531 6.132812 -8.769531 C 8.285156 -8.769531 9.835938 -7.179688 9.835938 -5.050781 C 9.835938 -2.898438 8.285156 -1.308594 6.132812 -1.308594 Z M 6.132812 -1.308594 "/></g></g></g><g fill="#000000" fill-opacity="1"><g transform="translate(118.343527, 28.337903)"><g><path d="M 1.273438 0 L 3.085938 0 L 3.085938 -1.980469 L 1.273438 -1.980469 Z M 1.273438 0 "/></g></g></g><g fill="#000000" fill-opacity="1"><g transform="translate(122.719164, 28.337903)"><g><path d="M 6.46875 -13.089844 L 1.777344 -13.089844 L 1.777344 0 L 3.421875 0 L 3.421875 -4.695312 L 6.46875 -4.695312 C 8.957031 -4.695312 10.808594 -6.488281 10.808594 -8.882812 C 10.808594 -11.296875 8.9375 -13.089844 6.46875 -13.089844 Z M 6.394531 -6.285156 L 3.421875 -6.285156 L 3.421875 -11.5 L 6.394531 -11.5 C 7.984375 -11.5 9.144531 -10.378906 9.144531 -8.882812 C 9.144531 -7.386719 7.984375 -6.285156 6.394531 -6.285156 Z M 6.394531 -6.285156 "/></g></g></g><g fill="#000000" fill-opacity="1"><g transform="translate(134.125742, 28.337903)"><g><path d="M 3.421875 -1.535156 L 3.421875 -13.089844 L 1.777344 -13.089844 L 1.777344 0 L 9.164062 0 L 9.164062 -1.535156 Z M 3.421875 -1.535156 "/></g></g></g></svg>